<svg width="40" height="40" viewBox="0 0 40 40" fill="none" xmlns="http://www.w3.org/2000/svg">
<g id="Biohazard">
<path id="Vector" d="M29.0125 16.2938C28.8667 15.9938 28.7073 15.7021 28.5344 15.4188C29.5251 13.2348 29.6412 10.7542 28.8589 8.48718C28.0765 6.2202 26.455 4.33925 24.3281 3.23126C24.0341 3.07793 23.6912 3.04768 23.3749 3.14716C23.0586 3.24665 22.7947 3.46771 22.6414 3.76173C22.4881 4.05575 22.4578 4.39863 22.5573 4.71495C22.6568 5.03127 22.8779 5.29512 23.1719 5.44845C24.5384 6.15947 25.6265 7.30883 26.2618 8.71218C26.897 10.1155 27.0425 11.6916 26.675 13.1875C24.8427 11.5373 22.4643 10.6241 19.9984 10.6241C17.5326 10.6241 15.1541 11.5373 13.3219 13.1875C12.9546 11.6912 13.1006 10.1149 13.7364 8.71153C14.3722 7.30813 15.461 6.15898 16.8281 5.44845C16.9737 5.37253 17.1029 5.26868 17.2084 5.14282C17.3138 5.01697 17.3934 4.87158 17.4427 4.71495C17.4919 4.55833 17.5099 4.39353 17.4954 4.22998C17.481 4.06642 17.4345 3.90731 17.3586 3.76173C17.2827 3.61615 17.1788 3.48694 17.053 3.3815C16.9271 3.27605 16.7817 3.19642 16.6251 3.14716C16.4685 3.09791 16.3037 3.07998 16.1401 3.09441C15.9766 3.10884 15.8175 3.15534 15.6719 3.23126C13.5447 4.33898 11.9229 6.21981 11.1402 8.48682C10.3575 10.7538 10.4734 13.2346 11.4641 15.4188C11.2905 15.7011 11.1315 15.9921 10.9875 16.2906C8.6659 16.5139 6.51059 17.5935 4.94153 19.3191C3.37248 21.0447 2.5021 23.2927 2.5 25.625C2.5 25.9565 2.6317 26.2745 2.86612 26.5089C3.10054 26.7433 3.41848 26.875 3.75 26.875C4.08152 26.875 4.39946 26.7433 4.63388 26.5089C4.8683 26.2745 5 25.9565 5 25.625C5.0022 24.1043 5.50747 22.6271 6.43705 21.4237C7.36664 20.2202 8.66828 19.3582 10.1391 18.9719C9.73733 21.357 10.2145 23.8068 11.4819 25.8667C12.7494 27.9267 14.7212 29.4569 17.0312 30.1734C15.9471 31.4028 14.4594 32.2043 12.8364 32.4335C11.2134 32.6627 9.56188 32.3045 8.17969 31.4234C8.04154 31.3288 7.88579 31.2628 7.72166 31.2295C7.55754 31.1962 7.38839 31.1962 7.22427 31.2295C7.06015 31.2629 6.9044 31.3288 6.76627 31.4235C6.62814 31.5182 6.51044 31.6397 6.42017 31.7808C6.3299 31.9218 6.2689 32.0796 6.24078 32.2447C6.21267 32.4098 6.21801 32.5788 6.2565 32.7418C6.29499 32.9048 6.36584 33.0584 6.46484 33.1935C6.56384 33.3286 6.68898 33.4424 6.83281 33.5281C7.87416 34.1922 9.03646 34.644 10.2529 34.8575C11.4694 35.071 12.7161 35.0421 13.9213 34.7723C15.1266 34.5025 16.2667 33.9973 17.276 33.2855C18.2854 32.5738 19.1442 31.6697 19.8031 30.625H20H20.1969C20.8556 31.6706 21.7147 32.5757 22.7245 33.2881C23.7343 34.0005 24.875 34.5063 26.081 34.7762C27.287 35.0462 28.5345 35.075 29.7517 34.8611C30.9689 34.6472 32.1318 34.1947 33.1734 33.5297C33.3173 33.4439 33.4424 33.3301 33.5414 33.195C33.6404 33.06 33.7113 32.9064 33.7498 32.7434C33.7882 32.5804 33.7936 32.4113 33.7655 32.2462C33.7374 32.0812 33.6763 31.9234 33.5861 31.7823C33.4958 31.6413 33.3781 31.5198 33.24 31.4251C33.1019 31.3304 32.9461 31.2644 32.782 31.2311C32.6179 31.1978 32.4487 31.1978 32.2846 31.2311C32.1205 31.2644 31.9647 31.3303 31.8266 31.425C30.4444 32.306 28.7929 32.6642 27.1699 32.435C25.5469 32.2059 24.0592 31.4043 22.975 30.175C25.2839 29.4573 27.2542 27.9265 28.5205 25.8667C29.7867 23.8069 30.263 21.3577 29.8609 18.9734C31.3315 19.3597 32.6329 20.2215 33.5625 21.4246C34.492 22.6278 34.9975 24.1046 35 25.625C35 25.9565 35.1317 26.2745 35.3661 26.5089C35.6005 26.7433 35.9185 26.875 36.25 26.875C36.5815 26.875 36.8995 26.7433 37.1339 26.5089C37.3683 26.2745 37.5 25.9565 37.5 25.625C37.4971 23.2932 36.6264 21.046 35.0574 19.3211C33.4884 17.5961 31.3336 16.517 29.0125 16.2938ZM20 13.125C21.0472 13.1248 22.0828 13.3442 23.0399 13.7692C23.9969 14.1942 24.8542 14.8152 25.5562 15.5922C24.9183 16.468 24.0824 17.1806 23.1166 17.6719C22.1509 18.1633 21.0827 18.4194 19.9992 18.4194C18.9157 18.4194 17.8475 18.1633 16.8818 17.6719C15.9161 17.1806 15.0801 16.468 14.4422 15.5922C15.1443 14.8149 16.0018 14.1936 16.9592 13.7686C17.9166 13.3436 18.9525 13.1243 20 13.125ZM20.0187 20.925L20 20.9563L19.9812 20.925H20.0187ZM12.5 20.625C12.4996 20.0113 12.5752 19.3999 12.725 18.8047C13.7469 18.9319 14.7271 19.2871 15.5933 19.844C16.4595 20.4009 17.1895 21.1452 17.7295 22.022C18.2694 22.8989 18.6055 23.8858 18.7129 24.91C18.8203 25.9341 18.6963 26.9693 18.35 27.9391C16.6906 27.5628 15.2082 26.6343 14.1454 25.3055C13.0826 23.9768 12.5025 22.3265 12.5 20.625ZM21.6516 27.9391C21.3053 26.9693 21.1812 25.9341 21.2886 24.91C21.396 23.8858 21.7321 22.8989 22.2721 22.022C22.812 21.1452 23.5421 20.4009 24.4083 19.844C25.2745 19.2871 26.2547 18.9319 27.2766 18.8047C27.5189 19.7743 27.565 20.7825 27.4121 21.7701C27.2593 22.7577 26.9106 23.7048 26.3866 24.5558C25.8625 25.4067 25.1737 26.1444 24.3606 26.7254C23.5475 27.3064 22.6264 27.719 21.6516 27.9391Z" fill="url(#paint0_linear_22_97)"/>
</g>
<defs>
<linearGradient id="paint0_linear_22_97" x1="20" y1="3.08957" x2="20" y2="35.0026" gradientUnits="userSpaceOnUse">
<stop stop-color="#318CA8"/>
<stop offset="1" stop-color="#133742"/>
</linearGradient>
</defs>
</svg>
