<svg width="33" height="33" viewBox="0 0 33 33" fill="none" xmlns="http://www.w3.org/2000/svg">
<g id="CaretRight">
<path id="Vector" d="M23.2075 17.2075L13.2075 27.2075C13.1146 27.3004 13.0043 27.3741 12.8829 27.4244C12.7615 27.4747 12.6314 27.5006 12.5 27.5006C12.3686 27.5006 12.2385 27.4747 12.1171 27.4244C11.9957 27.3741 11.8854 27.3004 11.7925 27.2075C11.6996 27.1146 11.6259 27.0043 11.5756 26.8829C11.5253 26.7615 11.4995 26.6314 11.4995 26.5C11.4995 26.3686 11.5253 26.2385 11.5756 26.1171C11.6259 25.9957 11.6996 25.8854 11.7925 25.7925L21.0863 16.5L11.7925 7.20751C11.6049 7.01987 11.4995 6.76537 11.4995 6.50001C11.4995 6.23464 11.6049 5.98015 11.7925 5.79251C11.9801 5.60487 12.2346 5.49945 12.5 5.49945C12.7654 5.49945 13.0199 5.60487 13.2075 5.79251L23.2075 15.7925C23.3005 15.8854 23.3742 15.9957 23.4246 16.1171C23.4749 16.2385 23.5008 16.3686 23.5008 16.5C23.5008 16.6314 23.4749 16.7615 23.4246 16.8829C23.3742 17.0043 23.3005 17.1146 23.2075 17.2075Z" fill="white"/>
</g>
</svg>
