<svg width="40" height="40" viewBox="0 0 40 40" fill="none" xmlns="http://www.w3.org/2000/svg">
<g id="GitDiff">
<path id="Vector" d="M17.5 23.75C17.1685 23.75 16.8505 23.8817 16.6161 24.1161C16.3817 24.3505 16.25 24.6685 16.25 25V29.4828L10.3656 23.5938C10.1324 23.3603 10.001 23.0441 10 22.7141V14.8438C11.1783 14.5395 12.2052 13.816 12.8883 12.8088C13.5713 11.8015 13.8635 10.5798 13.7101 9.37251C13.5568 8.16524 12.9684 7.05535 12.0553 6.25086C11.1422 5.44637 9.96697 5.00253 8.75 5.00253C7.53303 5.00253 6.35784 5.44637 5.44471 6.25086C4.53158 7.05535 3.9432 8.16524 3.78985 9.37251C3.63651 10.5798 3.92873 11.8015 4.61175 12.8088C5.29476 13.816 6.32168 14.5395 7.5 14.8438V22.7156C7.4975 23.2087 7.5929 23.6974 7.78064 24.1534C7.96839 24.6094 8.24477 25.0235 8.59375 25.3719L14.4828 31.25H10C9.66848 31.25 9.35054 31.3817 9.11612 31.6161C8.8817 31.8505 8.75 32.1685 8.75 32.5C8.75 32.8315 8.8817 33.1495 9.11612 33.3839C9.35054 33.6183 9.66848 33.75 10 33.75H17.5C17.8315 33.75 18.1495 33.6183 18.3839 33.3839C18.6183 33.1495 18.75 32.8315 18.75 32.5V25C18.75 24.6685 18.6183 24.3505 18.3839 24.1161C18.1495 23.8817 17.8315 23.75 17.5 23.75ZM6.25 10C6.25 9.50556 6.39662 9.02221 6.67133 8.61109C6.94603 8.19996 7.33648 7.87953 7.79329 7.69031C8.25011 7.50109 8.75277 7.45159 9.23773 7.54805C9.72268 7.64451 10.1681 7.88261 10.5178 8.23225C10.8674 8.58188 11.1055 9.02733 11.202 9.51229C11.2984 9.99724 11.2489 10.4999 11.0597 10.9567C10.8705 11.4135 10.55 11.804 10.1389 12.0787C9.7278 12.3534 9.24445 12.5 8.75 12.5C8.08696 12.5 7.45107 12.2366 6.98223 11.7678C6.51339 11.2989 6.25 10.6631 6.25 10ZM32.5 25.1563V17.2859C32.5025 16.7929 32.4071 16.3042 32.2194 15.8482C32.0316 15.3922 31.7552 14.9781 31.4062 14.6297L25.5172 8.75001H30C30.3315 8.75001 30.6495 8.61832 30.8839 8.3839C31.1183 8.14948 31.25 7.83153 31.25 7.50001C31.25 7.16849 31.1183 6.85055 30.8839 6.61613C30.6495 6.38171 30.3315 6.25001 30 6.25001H22.5C22.1685 6.25001 21.8505 6.38171 21.6161 6.61613C21.3817 6.85055 21.25 7.16849 21.25 7.50001V15C21.25 15.3315 21.3817 15.6495 21.6161 15.8839C21.8505 16.1183 22.1685 16.25 22.5 16.25C22.8315 16.25 23.1495 16.1183 23.3839 15.8839C23.6183 15.6495 23.75 15.3315 23.75 15V10.5172L29.6344 16.4063C29.7504 16.5224 29.8424 16.6603 29.9052 16.8121C29.9679 16.9638 30.0001 17.1264 30 17.2906V25.1563C28.8217 25.4605 27.7948 26.184 27.1117 27.1913C26.4287 28.1985 26.1365 29.4202 26.2899 30.6275C26.4432 31.8348 27.0316 32.9447 27.9447 33.7492C28.8578 34.5537 30.033 34.9975 31.25 34.9975C32.467 34.9975 33.6422 34.5537 34.5553 33.7492C35.4684 32.9447 36.0568 31.8348 36.2101 30.6275C36.3635 29.4202 36.0713 28.1985 35.3883 27.1913C34.7052 26.184 33.6783 25.4605 32.5 25.1563ZM31.25 32.5C30.7555 32.5 30.2722 32.3534 29.8611 32.0787C29.45 31.804 29.1295 31.4135 28.9403 30.9567C28.7511 30.4999 28.7016 29.9972 28.798 29.5123C28.8945 29.0273 29.1326 28.5819 29.4822 28.2322C29.8319 27.8826 30.2773 27.6445 30.7623 27.548C31.2472 27.4516 31.7499 27.5011 32.2067 27.6903C32.6635 27.8795 33.054 28.2 33.3287 28.6111C33.6034 29.0222 33.75 29.5056 33.75 30C33.75 30.6631 33.4866 31.2989 33.0178 31.7678C32.5489 32.2366 31.913 32.5 31.25 32.5Z" fill="url(#paint0_linear_24_288)"/>
</g>
<defs>
<linearGradient id="paint0_linear_24_288" x1="20" y1="5.00253" x2="20" y2="34.9975" gradientUnits="userSpaceOnUse">
<stop stop-color="#318CA8"/>
<stop offset="1" stop-color="#133742"/>
</linearGradient>
</defs>
</svg>
