<svg width="180" height="153" viewBox="0 0 180 153" fill="none" xmlns="http://www.w3.org/2000/svg">
<g id="Logo">
<path id="Vector" d="M88.3549 83.1676L68.2891 71.741L68.2891 133.163L88.3549 146.759L88.3549 83.1676Z" fill="url(#paint0_linear_195_81)"/>
<path id="Vector_2" d="M89.0534 120.266L89.0533 146.759L108.97 132.247L109.788 106.767L89.0534 120.266Z" fill="url(#paint1_linear_195_81)"/>
<path id="Vector_3" d="M45.9215 32.147L24.2411 19.8215L23.9042 45.3614L45.5845 57.6869L46.3904 116.672L67.265 132.607L67.265 70.0125L88.9454 82.338L89.2823 56.7981L67.6019 44.4726L66.9107 44.0796L45.2303 31.7541L45.9215 32.147Z" fill="url(#paint2_linear_195_81)"/>
<path id="Vector_4" d="M134.185 33.6236L156.279 22.1064L155.73 47.6424L133.636 59.1595L130.785 118.077L109.788 131.741L111.542 70.6767L89.4482 82.1938L89.9971 56.6579L112.091 45.1407L112.795 44.7735L134.889 33.2563L134.185 33.6236Z" fill="url(#paint3_linear_195_81)"/>
</g>
<defs>
<linearGradient id="paint0_linear_195_81" x1="60.8187" y1="76.0803" x2="96.7276" y2="137.9" gradientUnits="userSpaceOnUse">
<stop stop-color="#245E70"/>
<stop offset="0.495" stop-color="#318BA6"/>
</linearGradient>
<linearGradient id="paint1_linear_195_81" x1="98.8315" y1="141.697" x2="91.3874" y2="118.712" gradientUnits="userSpaceOnUse">
<stop stop-color="#245E70"/>
<stop offset="1" stop-color="#45B4D6"/>
</linearGradient>
<linearGradient id="paint2_linear_195_81" x1="121.191" y1="100.242" x2="47.0933" y2="-23.2181" gradientUnits="userSpaceOnUse">
<stop stop-color="#215E71"/>
<stop offset="0.375" stop-color="#133742"/>
</linearGradient>
<linearGradient id="paint3_linear_195_81" x1="131.638" y1="-23.8941" x2="53.2005" y2="96.653" gradientUnits="userSpaceOnUse">
<stop stop-color="#215E71"/>
<stop offset="1" stop-color="#133742"/>
</linearGradient>
</defs>
</svg>
