<svg width="100" height="100" viewBox="0 0 100 100" fill="none" xmlns="http://www.w3.org/2000/svg">
<g id="Tinted-Logo">
<g id="Group 11" filter="url(#filter0_d_156_123)">
<path id="Vector" d="M46.7295 55.1196L37.7607 50.2094L37.7607 76.6032L46.7295 82.4458L46.7295 55.1196Z" fill="url(#paint0_linear_156_123)"/>
<path id="Vector_2" d="M47.0418 70.4655L47.0418 82.4459L55.9442 76.2099L56.2366 65.2606L47.0418 70.4655Z" fill="url(#paint1_linear_156_123)"/>
<path id="Vector_3" d="M27.7631 33.1954L18.0726 27.8989L17.922 38.8737L27.6125 44.1702L27.9727 69.5167L37.303 76.3643L37.303 49.4667L46.9935 54.7631L47.1441 43.7883L37.4536 38.4918L37.1446 38.323L27.4541 33.0265L27.7631 33.1954Z" fill="url(#paint2_linear_156_123)"/>
<path id="Vector_4" d="M67.2142 33.8299L77.0895 28.8808L76.8442 39.854L66.9688 44.8031L65.6946 70.1205L56.3095 75.8472L57.0935 49.7521L47.2182 54.7012L47.4635 43.7281L57.3388 38.779L57.6537 38.6212L67.529 33.6721L67.2142 33.8299Z" fill="url(#paint3_linear_156_123)"/>
</g>
<rect id="Rectangle 1" y="100" width="62.7907" height="91.4253" transform="rotate(-90 0 100)" fill="url(#paint4_linear_156_123)"/>
</g>
<defs>
<filter id="filter0_d_156_123" x="13.922" y="27.8989" width="67.1675" height="62.5469" filterUnits="userSpaceOnUse" color-interpolation-filters="sRGB">
<feFlood flood-opacity="0" result="BackgroundImageFix"/>
<feColorMatrix in="SourceAlpha" type="matrix" values="0 0 0 0 0 0 0 0 0 0 0 0 0 0 0 0 0 0 127 0" result="hardAlpha"/>
<feOffset dy="4"/>
<feGaussianBlur stdDeviation="2"/>
<feComposite in2="hardAlpha" operator="out"/>
<feColorMatrix type="matrix" values="0 0 0 0 0 0 0 0 0 0 0 0 0 0 0 0 0 0 0.25 0"/>
<feBlend mode="normal" in2="BackgroundImageFix" result="effect1_dropShadow_156_123"/>
<feBlend mode="normal" in="SourceGraphic" in2="effect1_dropShadow_156_123" result="shape"/>
</filter>
<linearGradient id="paint0_linear_156_123" x1="34.4217" y1="52.0741" x2="49.5454" y2="79.1561" gradientUnits="userSpaceOnUse">
<stop stop-color="#245E70"/>
<stop offset="0.495" stop-color="#318BA6"/>
</linearGradient>
<linearGradient id="paint1_linear_156_123" x1="55.8621" y1="65.6497" x2="46.811" y2="80.7619" gradientUnits="userSpaceOnUse">
<stop stop-color="#245E70"/>
<stop offset="1" stop-color="#45B4D6"/>
</linearGradient>
<linearGradient id="paint2_linear_156_123" x1="61.4064" y1="62.4566" x2="30.1684" y2="8.31856" gradientUnits="userSpaceOnUse">
<stop stop-color="#215E71"/>
<stop offset="0.375" stop-color="#133742"/>
</linearGradient>
<linearGradient id="paint3_linear_156_123" x1="66.0755" y1="9.11378" x2="32.9247" y2="62.1082" gradientUnits="userSpaceOnUse">
<stop stop-color="#215E71"/>
<stop offset="1" stop-color="#133742"/>
</linearGradient>
<linearGradient id="paint4_linear_156_123" x1="62.7907" y1="145.713" x2="-1.48578e-06" y2="145.713" gradientUnits="userSpaceOnUse">
<stop offset="0.0463895" stop-opacity="0.01"/>
<stop offset="0.52" stop-opacity="0.8"/>
</linearGradient>
</defs>
</svg>
